#!OML:ASF E:\Steps\Project 1\Capture day 1\Session 2\Subject.ASF
:FULLY-SPECIFIED
:DEGREES
144
root -1.16831 19.3575 19.8716 -156.72 -8.93349 181.442
lowerback -24.7647 -2.97119 -9.22262
upperback 0.0620114 -1.48736 -0.553961
thorax 14.2676 -1.44036 4.07759
lowerneck -6.61896 -8.49349 -0.972131
upperneck 24.3182 -14.3478 2.18218
head 8.93868 -7.23425 -0.587293
rclavicle -8.15017e-015 -3.97569e-014
rhumerus -39.0085 -15.1889 -79.6911
rradius 39.3608
rwrist -7.23772
rhand -4.96964 -55.8197
rfingers 7.12502
rthumb 20.8226 -84.7224
lclavicle -8.15017e-015 -3.97569e-014
lhumerus -30.7077 2.24459 75.4642
lradius 25.616
lwrist -1.37118
lhand -21.1622 -10.7402
lfingers 7.12502
lthumb 5.21772 19.1755
rfemur -45.6037 -8.00289 26.4139
rtibia 50.1361
rfoot -24.0796 -8.95653
rtoes -36.0714
lfemur -28.8422 -15.1376 -17.212
ltibia 28.5624
lfoot -19.2747 -2.68073
ltoes -12.5571
145
root -1.16295 19.3555 19.8449 -156.885 -9.10687 181.525
lowerback -24.706 -2.96201 -9.30696
upperback 0.153134 -1.44216 -0.548688
thorax 14.3409 -1.42776 4.14878
lowerneck -6.62599 -8.55964 -1.00552
upperneck 24.3754 -14.4838 2.30487
head 8.97592 -7.28855 -0.559807
rclavicle 1.98785e-015 6.36111e-015
rhumerus -38.955 -15.1257 -79.6045
rradius 39.3199
rwrist -7.22826
rhand -5.05222 -55.7801
rfingers 7.12502
rthumb 20.7432 -84.6914
lclavicle 1.98785e-015 6.36111e-015
lhumerus -30.5714 1.94362 75.5187
lradius 25.908
lwrist -0.831253
lhand -20.9215 -10.6704
lfingers 7.12502
lthumb 5.45017 19.2395
rfemur -45.8915 -8.10633 26.1126
rtibia 49.6434
rfoot -23.0944 -9.22542
rtoes -32.6984
lfemur -28.7703 -15.2572 -17.1103
ltibia 28.9498
lfoot -19.5754 -2.61639
ltoes -13.9623
146
root -1.1559 19.353 19.8152 -157.061 -9.33133 181.699
lowerback -24.6848 -2.94833 -9.30844
upperback 0.242673 -1.41368 -0.51645
thorax 14.4343 -1.41836 4.19736
lowerneck -6.47111 -8.49587 -1.09205
upperneck 24.4105 -14.4553 2.5005
head 8.98227 -7.27295 -0.473925
rclavicle -2.52457e-014 4.6118e-014
rhumerus -38.9633 -15.2517 -79.4439
rradius 39.2493
rwrist -7.05588
rhand -4.99814 -55.5389
rfingers 7.12502
rthumb 20.7952 -84.4445
lclavicle -2.52457e-014 4.6118e-014
lhumerus -30.4314 1.75489 75.5192
lradius 26.0675
lwrist -0.687743
lhand -21.0365 -11.006
lfingers 7.12502
lthumb 5.33907 18.9067
rfemur -46.1538 -8.16337 25.8826
rtibia 49.1597
rfoot -22.0924 -9.59102
rtoes -30.2231
lfemur -28.6467 -15.3592 -16.8837
ltibia 29.2277
lfoot -19.8448 -2.54914
ltoes -15.2932
147
root -1.14566 19.3425 19.7811 -157.146 -9.55046 181.851
lowerback -24.784 -2.95693 -9.32137
upperback 0.295647 -1.40449 -0.499601
thorax 14.5541 -1.42039 4.22537
lowerneck -6.3798 -8.46763 -1.13034
upperneck 24.5377 -14.4678 2.56447
head 9.01876 -7.28323 -0.449125
rclavicle -3.39922e-014 5.88403e-014
rhumerus -39.035 -15.4141 -79.2721
rradius 39.1279
rwrist -6.93442
rhand -4.79139 -55.3006
rfingers 7.12502
rthumb 20.9938 -84.1844
lclavicle -3.39922e-014 5.88403e-014
lhumerus -30.3261 1.79622 75.4073
lradius 26.1365
lwrist -0.837257
lhand -21.4637 -11.3077
lfingers 7.12502
lthumb 4.92667 18.6151
rfemur -46.5615 -8.10114 25.6063
rtibia 48.5906
rfoot -20.8319 -10.1013
rtoes -28.415
lfemur -28.5652 -15.422 -16.6769
ltibia 29.4557
lfoot -20.0719 -2.52547
ltoes -16.1135
148
root -1.13244 19.3308 19.7512 -157.156 -9.74738 181.939
lowerback -24.8269 -2.98242 -9.39491
upperback 0.297742 -1.41136 -0.510704
thorax 14.584 -1.43012 4.25082
lowerneck -6.37753 -8.47918 -1.14046
upperneck 24.6658 -14.5261 2.6029
head 9.06887 -7.30997 -0.446671
rclavicle 4.7112e-014 5.24792e-014
rhumerus -39.0336 -15.5438 -79.1288
rradius 38.8876
rwrist -6.81002
rhand -4.53606 -55.4664
rfingers 7.12502
rthumb 21.2391 -84.3228
lclavicle 4.7112e-014 5.24792e-014
lhumerus -30.279 1.69335 75.3044
lradius 26.3082
lwrist -0.798718
lhand -21.6574 -11.6168
lfingers 7.12502
lthumb 4.73959 18.3102
rfemur -47.0052 -8.00806 25.2443
rtibia 47.8313
rfoot -19.2015 -10.5712
rtoes -26.4429
lfemur -28.6399 -15.4598 -16.5149
ltibia 29.8264
lfoot -20.2339 -2.67672
ltoes -16.0158
